<mxfile host="app.diagrams.net" modified="2021-10-22T09:13:36.324Z" agent="5.0 (Windows NT 10.0; WOW64) AppleWebKit/537.36 (KHTML, like Gecko) Chrome/92.0.4515.168 Safari/537.36" etag="dSkcUnGaUETzem9igH3L" version="14.7.3" type="github">
  <diagram name="Page-1" id="03018318-947c-dd8e-b7a3-06fadd420f32">
    <mxGraphModel dx="2425" dy="725" grid="1" gridSize="10" guides="1" tooltips="1" connect="1" arrows="1" fold="1" page="1" pageScale="1" pageWidth="1100" pageHeight="850" background="#ffffff" math="0" shadow="0">
      <root>
        <mxCell id="0" />
        <mxCell id="1" parent="0" />
        <mxCell id="677b7b8949515195-1" value="" style="whiteSpace=wrap;html=1;rounded=0;shadow=0;labelBackgroundColor=none;strokeColor=#000000;strokeWidth=1;fillColor=none;fontFamily=Verdana;fontSize=12;fontColor=#000000;align=center;comic=1;" parent="1" vertex="1">
          <mxGeometry x="-5" y="350" width="1110" height="1410" as="geometry" />
        </mxCell>
        <mxCell id="677b7b8949515195-2" value="LOGO" style="whiteSpace=wrap;html=1;rounded=0;shadow=0;labelBackgroundColor=none;strokeWidth=1;fontFamily=Verdana;fontSize=28;align=center;comic=1;" parent="1" vertex="1">
          <mxGeometry x="40" y="40" width="190" height="50" as="geometry" />
        </mxCell>
        <mxCell id="677b7b8949515195-3" value="Bạn muốn mua gì ?" style="strokeWidth=1;shadow=0;dashed=0;align=center;html=1;shape=mxgraph.mockup.forms.searchBox;strokeColor=#999999;mainText=;strokeColor2=#008cff;fontColor=#666666;fontSize=17;align=left;spacingLeft=3;rounded=0;labelBackgroundColor=none;comic=1;" parent="1" vertex="1">
          <mxGeometry x="280" y="90" width="210" height="30" as="geometry" />
        </mxCell>
        <mxCell id="677b7b8949515195-4" value="Giờ mở cửa 7:00-23:00&lt;br style=&quot;font-size: 20px;&quot;&gt;" style="text;html=1;points=[];align=left;verticalAlign=top;spacingTop=-4;fontSize=20;fontFamily=Verdana;labelBorderColor=none;labelBackgroundColor=#FF8AEB;" parent="1" vertex="1">
          <mxGeometry x="440" y="40" width="120" height="40" as="geometry" />
        </mxCell>
        <mxCell id="677b7b8949515195-5" value="Đăng nhập" style="text;html=1;points=[];align=left;verticalAlign=top;spacingTop=-4;fontSize=16;fontFamily=Verdana;labelBackgroundColor=#E1D5E7;labelBorderColor=#E8FF8C;" parent="1" vertex="1">
          <mxGeometry x="820" y="95" width="60" height="20" as="geometry" />
        </mxCell>
        <mxCell id="677b7b8949515195-8" value="" style="whiteSpace=wrap;html=1;rounded=0;shadow=0;labelBackgroundColor=none;strokeWidth=1;fillColor=none;fontFamily=Verdana;fontSize=12;align=center;comic=1;" parent="1" vertex="1">
          <mxGeometry x="30" y="449" width="200" height="410" as="geometry" />
        </mxCell>
        <mxCell id="677b7b8949515195-9" value="" style="line;strokeWidth=1;html=1;rounded=0;shadow=0;labelBackgroundColor=none;fillColor=none;fontFamily=Verdana;fontSize=14;fontColor=#000000;align=center;comic=1;" parent="1" vertex="1">
          <mxGeometry x="20" y="140" width="1060" height="10" as="geometry" />
        </mxCell>
        <mxCell id="677b7b8949515195-10" value="" style="whiteSpace=wrap;html=1;rounded=0;shadow=0;labelBackgroundColor=none;strokeWidth=1;fillColor=none;fontFamily=Verdana;fontSize=12;align=center;comic=1;" parent="1" vertex="1">
          <mxGeometry x="30" y="160" width="1040" height="50" as="geometry" />
        </mxCell>
        <mxCell id="677b7b8949515195-11" value="Trang chủ" style="text;html=1;points=[];align=left;verticalAlign=top;spacingTop=-4;fontSize=14;fontFamily=Verdana" parent="1" vertex="1">
          <mxGeometry x="330" y="175" width="60" height="20" as="geometry" />
        </mxCell>
        <mxCell id="677b7b8949515195-12" value="Giới thiệu" style="text;html=1;points=[];align=left;verticalAlign=top;spacingTop=-4;fontSize=14;fontFamily=Verdana" parent="1" vertex="1">
          <mxGeometry x="477" y="175" width="60" height="20" as="geometry" />
        </mxCell>
        <mxCell id="677b7b8949515195-13" value="Thực đơn" style="text;html=1;points=[];align=left;verticalAlign=top;spacingTop=-4;fontSize=14;fontFamily=Verdana" parent="1" vertex="1">
          <mxGeometry x="623" y="175" width="60" height="20" as="geometry" />
        </mxCell>
        <mxCell id="677b7b8949515195-14" value="Liên hệ" style="text;html=1;points=[];align=left;verticalAlign=top;spacingTop=-4;fontSize=14;fontFamily=Verdana" parent="1" vertex="1">
          <mxGeometry x="770" y="175" width="60" height="20" as="geometry" />
        </mxCell>
        <mxCell id="677b7b8949515195-15" value="&lt;div style=&quot;text-align: justify&quot;&gt;&lt;br&gt;&lt;/div&gt;" style="whiteSpace=wrap;html=1;rounded=0;shadow=0;labelBackgroundColor=none;strokeWidth=1;fillColor=none;fontFamily=Verdana;fontSize=12;align=center;verticalAlign=top;spacing=10;comic=1;" parent="1" vertex="1">
          <mxGeometry x="100" y="1470" width="920" height="180" as="geometry" />
        </mxCell>
        <mxCell id="677b7b8949515195-25" value="" style="whiteSpace=wrap;html=1;rounded=0;shadow=0;labelBackgroundColor=none;strokeWidth=1;fillColor=none;fontFamily=Verdana;fontSize=12;align=center;comic=1;" parent="1" vertex="1">
          <mxGeometry x="840" y="440" width="230" height="410" as="geometry" />
        </mxCell>
        <mxCell id="677b7b8949515195-46" value="Mỳ trộn xúc xích" style="text;html=1;points=[];align=left;verticalAlign=top;spacingTop=-4;fontSize=14;fontFamily=Verdana" parent="1" vertex="1">
          <mxGeometry x="875" y="480" width="170" height="20" as="geometry" />
        </mxCell>
        <mxCell id="677b7b8949515195-47" value="Khoai tây lắc phô mai" style="text;html=1;points=[];align=left;verticalAlign=top;spacingTop=-4;fontSize=14;fontFamily=Verdana" parent="1" vertex="1">
          <mxGeometry x="860" y="520" width="170" height="20" as="geometry" />
        </mxCell>
        <mxCell id="677b7b8949515195-48" value="Pizza hải sản" style="text;html=1;points=[];align=left;verticalAlign=top;spacingTop=-4;fontSize=14;fontFamily=Verdana" parent="1" vertex="1">
          <mxGeometry x="875" y="595" width="170" height="20" as="geometry" />
        </mxCell>
        <mxCell id="677b7b8949515195-49" value="Nước ép cà rốt" style="text;html=1;points=[];align=left;verticalAlign=top;spacingTop=-4;fontSize=14;fontFamily=Verdana" parent="1" vertex="1">
          <mxGeometry x="870" y="644" width="170" height="20" as="geometry" />
        </mxCell>
        <mxCell id="ZxaAQ4n8nj9VSlKFj-G1-3" value="THÔNG TIN LIÊN HỆ" style="rounded=0;whiteSpace=wrap;html=1;" vertex="1" parent="1">
          <mxGeometry x="350" y="1500" width="120" height="27" as="geometry" />
        </mxCell>
        <mxCell id="ZxaAQ4n8nj9VSlKFj-G1-4" value="ĐỊA CHỈ" style="rounded=1;whiteSpace=wrap;html=1;" vertex="1" parent="1">
          <mxGeometry x="570" y="1500" width="120" height="27" as="geometry" />
        </mxCell>
        <mxCell id="ZxaAQ4n8nj9VSlKFj-G1-5" value="FANPAGE" style="rounded=1;whiteSpace=wrap;html=1;" vertex="1" parent="1">
          <mxGeometry x="805" y="1497" width="120" height="30" as="geometry" />
        </mxCell>
        <mxCell id="ZxaAQ4n8nj9VSlKFj-G1-6" value="VỀ CHÚNG TÔI" style="rounded=1;whiteSpace=wrap;html=1;" vertex="1" parent="1">
          <mxGeometry x="140" y="1498.5" width="120" height="30" as="geometry" />
        </mxCell>
        <mxCell id="ZxaAQ4n8nj9VSlKFj-G1-7" value="" style="shape=image;html=1;verticalAlign=top;verticalLabelPosition=bottom;labelBackgroundColor=#ffffff;imageAspect=0;aspect=fixed;image=https://cdn0.iconfinder.com/data/icons/typicons-2/24/shopping-cart-128.png;fontSize=16;" vertex="1" parent="1">
          <mxGeometry x="925" y="95" width="25" height="25" as="geometry" />
        </mxCell>
        <mxCell id="ZxaAQ4n8nj9VSlKFj-G1-8" value="Gà rán sốt chua ngọt" style="text;html=1;strokeColor=none;fillColor=none;align=center;verticalAlign=middle;whiteSpace=wrap;rounded=0;fontSize=16;" vertex="1" parent="1">
          <mxGeometry x="845" y="690" width="170" height="20" as="geometry" />
        </mxCell>
        <mxCell id="ZxaAQ4n8nj9VSlKFj-G1-9" value="&#xa;&#xa;&lt;span style=&quot;color: rgb(0, 0, 0); font-family: verdana; font-size: 14px; font-style: normal; font-weight: 400; letter-spacing: normal; text-align: left; text-indent: 0px; text-transform: none; word-spacing: 0px; background-color: rgb(248, 249, 250); display: inline; float: none;&quot;&gt;SẢN PHẨM BÁN CHẠY&lt;/span&gt;&#xa;&#xa;" style="rounded=1;whiteSpace=wrap;html=1;fontSize=16;" vertex="1" parent="1">
          <mxGeometry x="850" y="395" width="210" height="30" as="geometry" />
        </mxCell>
        <mxCell id="ZxaAQ4n8nj9VSlKFj-G1-10" value="DANH MỤC SẢN PHẨM" style="rounded=1;whiteSpace=wrap;html=1;fontSize=16;" vertex="1" parent="1">
          <mxGeometry x="40" y="405" width="190" height="30" as="geometry" />
        </mxCell>
        <mxCell id="ZxaAQ4n8nj9VSlKFj-G1-11" value="Bò bít tết" style="text;html=1;strokeColor=none;fillColor=none;align=center;verticalAlign=middle;whiteSpace=wrap;rounded=0;fontSize=16;" vertex="1" parent="1">
          <mxGeometry x="870" y="760" width="120" height="20" as="geometry" />
        </mxCell>
        <mxCell id="ZxaAQ4n8nj9VSlKFj-G1-34" value="&lt;font style=&quot;font-size: 15px;&quot;&gt;THỰC ĐƠN HÔM NAY&lt;/font&gt;" style="rounded=1;whiteSpace=wrap;html=1;shadow=0;labelBackgroundColor=none;fontSize=15;" vertex="1" parent="1">
          <mxGeometry x="50" y="480" width="170" height="49" as="geometry" />
        </mxCell>
        <mxCell id="ZxaAQ4n8nj9VSlKFj-G1-35" value="THỨC ĂN NHANH" style="rounded=1;whiteSpace=wrap;html=1;shadow=0;labelBackgroundColor=none;fontSize=15;" vertex="1" parent="1">
          <mxGeometry x="40" y="615" width="170" height="40" as="geometry" />
        </mxCell>
        <mxCell id="ZxaAQ4n8nj9VSlKFj-G1-36" value="ĐỒ UỐNG" style="whiteSpace=wrap;html=1;rounded=1;shadow=0;fontSize=15;" vertex="1" parent="1">
          <mxGeometry x="40" y="760" width="170" height="41" as="geometry" />
        </mxCell>
        <mxCell id="ZxaAQ4n8nj9VSlKFj-G1-38" value="HEALTHY" style="rounded=1;whiteSpace=wrap;html=1;shadow=0;labelBackgroundColor=none;fontSize=15;" vertex="1" parent="1">
          <mxGeometry x="45" y="680" width="170" height="40" as="geometry" />
        </mxCell>
        <mxCell id="ZxaAQ4n8nj9VSlKFj-G1-39" value="SLIDE SHOW CHUYỂN ẢNH" style="rounded=1;whiteSpace=wrap;html=1;shadow=0;labelBackgroundColor=none;fontSize=15;" vertex="1" parent="1">
          <mxGeometry x="60" y="220" width="1020" height="160" as="geometry" />
        </mxCell>
        <mxCell id="ZxaAQ4n8nj9VSlKFj-G1-41" value="Hotline:.......&amp;nbsp;" style="text;html=1;strokeColor=none;fillColor=none;align=center;verticalAlign=middle;whiteSpace=wrap;rounded=0;shadow=0;labelBackgroundColor=none;fontSize=15;" vertex="1" parent="1">
          <mxGeometry x="860" y="50" width="40" height="20" as="geometry" />
        </mxCell>
        <mxCell id="ZxaAQ4n8nj9VSlKFj-G1-42" value="coppy right" style="rounded=0;whiteSpace=wrap;html=1;shadow=0;labelBackgroundColor=none;fontSize=15;" vertex="1" parent="1">
          <mxGeometry x="145" y="1610" width="830" height="30" as="geometry" />
        </mxCell>
        <mxCell id="ZxaAQ4n8nj9VSlKFj-G1-55" value="Hôm nay ăn gì ?" style="rounded=1;whiteSpace=wrap;html=1;shadow=0;labelBackgroundColor=none;fontSize=15;" vertex="1" parent="1">
          <mxGeometry x="380" y="425" width="320" height="40" as="geometry" />
        </mxCell>
        <mxCell id="ZxaAQ4n8nj9VSlKFj-G1-61" value="&lt;ul&gt;&lt;li&gt;Value 1&lt;/li&gt;&lt;li&gt;Value 2&lt;/li&gt;&lt;li&gt;Value 3&lt;/li&gt;&lt;/ul&gt;" style="text;strokeColor=none;fillColor=none;html=1;whiteSpace=wrap;verticalAlign=middle;overflow=hidden;shadow=0;labelBackgroundColor=none;fontSize=25;" vertex="1" parent="1">
          <mxGeometry x="410" y="475" width="540" height="180" as="geometry" />
        </mxCell>
        <mxCell id="ZxaAQ4n8nj9VSlKFj-G1-62" value="Món ăn nổi bật" style="swimlane;shadow=0;labelBackgroundColor=none;fontSize=25;" vertex="1" parent="1">
          <mxGeometry x="310" y="890" width="200" height="210" as="geometry" />
        </mxCell>
        <mxCell id="ZxaAQ4n8nj9VSlKFj-G1-63" value="hình ảnh" style="text;html=1;strokeColor=none;fillColor=none;align=center;verticalAlign=middle;whiteSpace=wrap;rounded=0;shadow=0;labelBackgroundColor=none;fontSize=25;" vertex="1" parent="ZxaAQ4n8nj9VSlKFj-G1-62">
          <mxGeometry x="40" y="100" width="120" height="20" as="geometry" />
        </mxCell>
        <mxCell id="ZxaAQ4n8nj9VSlKFj-G1-64" value="Khuyến mãi" style="swimlane;shadow=0;labelBackgroundColor=none;fontSize=25;" vertex="1" parent="1">
          <mxGeometry x="630" y="895" width="200" height="200" as="geometry" />
        </mxCell>
        <mxCell id="ZxaAQ4n8nj9VSlKFj-G1-65" value="hình ảnh" style="text;html=1;strokeColor=none;fillColor=none;align=center;verticalAlign=middle;whiteSpace=wrap;rounded=0;shadow=0;labelBackgroundColor=none;fontSize=25;" vertex="1" parent="ZxaAQ4n8nj9VSlKFj-G1-64">
          <mxGeometry x="40" y="100" width="120" height="20" as="geometry" />
        </mxCell>
        <mxCell id="ZxaAQ4n8nj9VSlKFj-G1-67" value="Các món chính" style="swimlane;shadow=0;labelBackgroundColor=none;fontSize=25;" vertex="1" parent="1">
          <mxGeometry x="300" y="1175" width="200" height="200" as="geometry" />
        </mxCell>
        <mxCell id="ZxaAQ4n8nj9VSlKFj-G1-68" value="hình ảnh" style="text;html=1;strokeColor=none;fillColor=none;align=center;verticalAlign=middle;whiteSpace=wrap;rounded=0;shadow=0;labelBackgroundColor=none;fontSize=25;" vertex="1" parent="ZxaAQ4n8nj9VSlKFj-G1-67">
          <mxGeometry x="30" y="90" width="120" height="20" as="geometry" />
        </mxCell>
        <mxCell id="ZxaAQ4n8nj9VSlKFj-G1-69" value="Trùm cuối" style="swimlane;shadow=0;labelBackgroundColor=none;fontSize=25;" vertex="1" parent="1">
          <mxGeometry x="620" y="1175" width="200" height="200" as="geometry" />
        </mxCell>
        <mxCell id="ZxaAQ4n8nj9VSlKFj-G1-71" value="hình ảnh" style="text;html=1;strokeColor=none;fillColor=none;align=center;verticalAlign=middle;whiteSpace=wrap;rounded=0;shadow=0;labelBackgroundColor=none;fontSize=25;" vertex="1" parent="ZxaAQ4n8nj9VSlKFj-G1-69">
          <mxGeometry x="30" y="100" width="120" height="20" as="geometry" />
        </mxCell>
        <mxCell id="ZxaAQ4n8nj9VSlKFj-G1-72" value="&lt;ul&gt;&lt;li&gt;Value 1&lt;/li&gt;&lt;li&gt;Value 2&lt;/li&gt;&lt;li&gt;Value 3&lt;/li&gt;&lt;/ul&gt;" style="text;strokeColor=none;fillColor=none;html=1;whiteSpace=wrap;verticalAlign=middle;overflow=hidden;shadow=0;labelBackgroundColor=none;fontSize=25;" vertex="1" parent="1">
          <mxGeometry x="410" y="644" width="230" height="150" as="geometry" />
        </mxCell>
        <mxCell id="ZxaAQ4n8nj9VSlKFj-G1-75" value="&lt;font style=&quot;font-size: 15px&quot;&gt;HẢI SẢN&lt;/font&gt;" style="rounded=1;whiteSpace=wrap;html=1;shadow=0;labelBackgroundColor=none;fontSize=25;" vertex="1" parent="1">
          <mxGeometry x="45" y="540" width="175" height="40" as="geometry" />
        </mxCell>
      </root>
    </mxGraphModel>
  </diagram>
</mxfile>
